<?xml version="1.0" encoding="UTF-8"?>
<svg xmlns="http://www.w3.org/2000/svg" version="1.1" viewBox="0 0 841.89 595.28">
  <defs>
    <style>
      .cls-1 {
        fill: #3d3b47;
      }

      .cls-2 {
        fill: #6c2528;
      }

      .cls-3 {
        fill: #59191c;
      }

      .cls-4 {
        fill: #852f31;
      }
    </style>
  </defs>
  <!-- Generator: Adobe Illustrator 28.7.1, SVG Export Plug-In . SVG Version: 1.2.0 Build 142)  -->
  <g>
    <g id="Layer_1">
      <g>
        <path class="cls-1" d="M190.72,507.98c0-10.62,7.87-18.15,18.82-18.15,6.38,0,11.7,2.63,14.52,7.6l-4.91,3.16c-2.28-3.49-5.78-5.11-9.68-5.11-6.99,0-12.23,4.91-12.23,12.5s5.24,12.57,12.23,12.57c3.9,0,7.4-1.61,9.68-5.11l4.91,3.09c-2.82,4.98-8.13,7.66-14.52,7.66-10.96,0-18.82-7.6-18.82-18.22Z"/>
        <path class="cls-1" d="M231.4,507.98c0-10.62,7.87-18.15,18.55-18.15s18.49,7.53,18.49,18.15-7.8,18.22-18.49,18.22-18.55-7.6-18.55-18.22ZM261.92,507.98c0-7.6-5.11-12.5-11.97-12.5s-12.03,4.91-12.03,12.5,5.18,12.57,12.03,12.57,11.97-4.98,11.97-12.57Z"/>
        <path class="cls-1" d="M313.5,505.29v20.5h-6.45v-19.76c0-6.99-3.5-10.42-9.61-10.42-6.86,0-11.29,4.1-11.29,11.83v18.35h-6.45v-35.63h6.18v5.38c2.62-3.63,7.19-5.72,12.84-5.72,8.67,0,14.79,4.98,14.79,15.46Z"/>
        <path class="cls-1" d="M323.27,522.02l2.69-5.11c3.02,2.15,7.87,3.7,12.5,3.7,5.98,0,8.47-1.81,8.47-4.84,0-8-22.52-1.08-22.52-15.26,0-6.39,5.71-10.69,14.86-10.69,4.64,0,9.88,1.21,12.97,3.23l-2.76,5.11c-3.23-2.08-6.79-2.83-10.28-2.83-5.65,0-8.4,2.08-8.4,4.91,0,8.4,22.58,1.54,22.58,15.39,0,6.45-5.91,10.56-15.39,10.56-5.92,0-11.76-1.81-14.72-4.17Z"/>
        <path class="cls-1" d="M383.78,523.7c-1.95,1.68-4.91,2.49-7.8,2.49-7.19,0-11.29-3.97-11.29-11.16v-19.56h-6.05v-5.31h6.05v-7.8h6.45v7.8h10.22v5.31h-10.22v19.29c0,3.83,2.02,5.98,5.58,5.98,1.88,0,3.7-.6,5.04-1.68l2.02,4.64Z"/>
        <path class="cls-1" d="M413.04,489.82v6.25c-.54-.07-1.01-.07-1.48-.07-6.93,0-11.23,4.24-11.23,12.03v17.75h-6.45v-35.63h6.18v5.98c2.29-4.17,6.72-6.32,12.98-6.32Z"/>
        <path class="cls-1" d="M456.94,490.16v35.63h-6.12v-5.38c-2.62,3.7-7.06,5.78-12.1,5.78-9.21,0-15.33-5.04-15.33-15.53v-20.5h6.45v19.76c0,6.99,3.5,10.48,9.62,10.48,6.72,0,11.02-4.16,11.02-11.83v-18.42h6.45Z"/>
        <path class="cls-1" d="M468.26,507.98c0-10.62,7.86-18.15,18.82-18.15,6.39,0,11.7,2.63,14.52,7.6l-4.91,3.16c-2.29-3.49-5.78-5.11-9.68-5.11-6.99,0-12.23,4.91-12.23,12.5s5.24,12.57,12.23,12.57c3.9,0,7.39-1.61,9.68-5.11l4.91,3.09c-2.82,4.98-8.13,7.66-14.52,7.66-10.96,0-18.82-7.6-18.82-18.22Z"/>
        <path class="cls-1" d="M532.27,523.7c-1.95,1.68-4.91,2.49-7.8,2.49-7.19,0-11.3-3.97-11.3-11.16v-19.56h-6.05v-5.31h6.05v-7.8h6.45v7.8h10.22v5.31h-10.22v19.29c0,3.83,2.02,5.98,5.58,5.98,1.88,0,3.7-.6,5.04-1.68l2.02,4.64Z"/>
        <path class="cls-1" d="M541.22,479.14c0-2.35,1.88-4.24,4.37-4.24s4.37,1.81,4.37,4.1c0,2.42-1.81,4.3-4.37,4.3s-4.37-1.81-4.37-4.16ZM542.36,490.16h6.45v35.63h-6.45v-35.63Z"/>
        <path class="cls-1" d="M560.12,507.98c0-10.62,7.86-18.15,18.55-18.15s18.49,7.53,18.49,18.15-7.8,18.22-18.49,18.22-18.55-7.6-18.55-18.22ZM590.63,507.98c0-7.6-5.11-12.5-11.96-12.5s-12.03,4.91-12.03,12.5,5.18,12.57,12.03,12.57,11.96-4.98,11.96-12.57Z"/>
        <path class="cls-1" d="M642.21,505.29v20.5h-6.45v-19.76c0-6.99-3.49-10.42-9.62-10.42-6.85,0-11.29,4.1-11.29,11.83v18.35h-6.45v-35.63h6.19v5.38c2.62-3.63,7.19-5.72,12.84-5.72,8.67,0,14.79,4.98,14.79,15.46Z"/>
      </g>
      <g>
        <path class="cls-1" d="M204.9,563.94c-1,.89-2.5,1.32-3.97,1.32-3.54,0-5.51-2-5.51-5.47v-11.37h-3.36v-2.14h3.36v-4.11h2.54v4.11h5.72v2.14h-5.72v11.23c0,2.22,1.14,3.43,3.25,3.43,1.04,0,2.07-.32,2.79-.97l.89,1.82Z"/>
        <path class="cls-1" d="M218.76,546.13v2.47c-.21,0-.43-.03-.61-.03-3.93,0-6.33,2.5-6.33,6.94v9.58h-2.54v-18.81h2.43v3.68c1.18-2.5,3.58-3.83,7.04-3.83Z"/>
        <path class="cls-1" d="M237.59,553.42v11.66h-2.43v-2.93c-1.14,1.93-3.36,3.11-6.47,3.11-4.25,0-6.87-2.22-6.87-5.47,0-2.9,1.86-5.33,7.26-5.33h5.97v-1.14c0-3.22-1.82-4.97-5.33-4.97-2.43,0-4.72.86-6.26,2.22l-1.14-1.9c1.9-1.61,4.68-2.54,7.65-2.54,4.86,0,7.62,2.43,7.62,7.29ZM235.05,559.43v-3.07h-5.9c-3.65,0-4.83,1.43-4.83,3.36,0,2.18,1.75,3.54,4.76,3.54s4.97-1.36,5.97-3.83Z"/>
        <path class="cls-1" d="M261.42,538.55v26.53h-2.43v-3.72c-1.54,2.54-4.15,3.9-7.26,3.9-5.36,0-9.37-3.9-9.37-9.58s4-9.55,9.37-9.55c3,0,5.58,1.29,7.15,3.72v-11.3h2.54ZM258.92,555.68c0-4.4-3-7.33-6.97-7.33s-7.01,2.93-7.01,7.33,3,7.33,7.01,7.33,6.97-2.93,6.97-7.33Z"/>
        <path class="cls-1" d="M284.64,556.47h-15.73c.29,3.93,3.29,6.54,7.4,6.54,2.29,0,4.33-.82,5.76-2.47l1.43,1.64c-1.68,2-4.29,3.07-7.26,3.07-5.86,0-9.87-4.01-9.87-9.58s3.9-9.55,9.19-9.55,9.12,3.9,9.12,9.55c0,.21-.04.5-.04.79ZM268.91,554.57h13.34c-.32-3.68-3-6.25-6.69-6.25s-6.33,2.57-6.65,6.25Z"/>
        <path class="cls-1" d="M312.97,553.42v11.66h-2.43v-2.93c-1.14,1.93-3.36,3.11-6.47,3.11-4.25,0-6.87-2.22-6.87-5.47,0-2.9,1.86-5.33,7.26-5.33h5.97v-1.14c0-3.22-1.82-4.97-5.33-4.97-2.43,0-4.72.86-6.26,2.22l-1.14-1.9c1.9-1.61,4.68-2.54,7.65-2.54,4.86,0,7.62,2.43,7.62,7.29ZM310.43,559.43v-3.07h-5.9c-3.65,0-4.83,1.43-4.83,3.36,0,2.18,1.75,3.54,4.76,3.54s4.97-1.36,5.97-3.83Z"/>
        <path class="cls-1" d="M336.94,554.18v10.91h-2.54v-10.66c0-3.97-2.07-6.01-5.65-6.01-4.04,0-6.58,2.5-6.58,6.79v9.87h-2.54v-18.81h2.43v3.47c1.36-2.29,3.9-3.61,7.15-3.61,4.58,0,7.72,2.65,7.72,8.05Z"/>
        <path class="cls-1" d="M360.77,538.55v26.53h-2.43v-3.72c-1.54,2.54-4.15,3.9-7.26,3.9-5.36,0-9.37-3.9-9.37-9.58s4-9.55,9.37-9.55c3,0,5.58,1.29,7.15,3.72v-11.3h2.54ZM358.26,555.68c0-4.4-3-7.33-6.97-7.33s-7.01,2.93-7.01,7.33,3,7.33,7.01,7.33,6.97-2.93,6.97-7.33Z"/>
        <path class="cls-1" d="M376.18,540.34c0-.97.82-1.79,1.86-1.79s1.86.79,1.86,1.76c0,1.04-.79,1.86-1.86,1.86s-1.86-.82-1.86-1.82ZM376.75,546.28h2.54v18.81h-2.54v-18.81Z"/>
        <path class="cls-1" d="M403.45,554.18v10.91h-2.54v-10.66c0-3.97-2.07-6.01-5.65-6.01-4.04,0-6.58,2.5-6.58,6.79v9.87h-2.54v-18.81h2.43v3.47c1.36-2.29,3.9-3.61,7.15-3.61,4.58,0,7.72,2.65,7.72,8.05Z"/>
        <path class="cls-1" d="M427.28,538.55v26.53h-2.43v-3.72c-1.54,2.54-4.15,3.9-7.26,3.9-5.36,0-9.37-3.9-9.37-9.58s4-9.55,9.37-9.55c3,0,5.58,1.29,7.15,3.72v-11.3h2.54ZM424.78,555.68c0-4.4-3-7.33-6.97-7.33s-7.01,2.93-7.01,7.33,3,7.33,7.01,7.33,6.97-2.93,6.97-7.33Z"/>
        <path class="cls-1" d="M451.07,546.28v18.81h-2.43v-3.43c-1.32,2.29-3.76,3.61-6.76,3.61-4.79,0-7.94-2.68-7.94-8.08v-10.91h2.54v10.66c0,4,2.07,6.04,5.65,6.04,3.93,0,6.4-2.54,6.4-6.83v-9.87h2.54Z"/>
        <path class="cls-1" d="M455.34,562.94l1.14-2c1.5,1.18,4.04,2.11,6.69,2.11,3.58,0,5.04-1.21,5.04-3.07,0-4.9-12.19-1.04-12.19-8.48,0-3.07,2.65-5.36,7.44-5.36,2.43,0,5.08.68,6.65,1.75l-1.11,2.04c-1.64-1.14-3.61-1.61-5.54-1.61-3.4,0-4.9,1.32-4.9,3.11,0,5.08,12.19,1.25,12.19,8.48,0,3.25-2.86,5.36-7.76,5.36-3.11,0-6.11-1-7.65-2.33Z"/>
        <path class="cls-1" d="M485.11,563.94c-1,.89-2.5,1.32-3.97,1.32-3.54,0-5.5-2-5.5-5.47v-11.37h-3.36v-2.14h3.36v-4.11h2.54v4.11h5.72v2.14h-5.72v11.23c0,2.22,1.14,3.43,3.25,3.43,1.04,0,2.08-.32,2.79-.97l.89,1.82Z"/>
        <path class="cls-1" d="M498.97,546.13v2.47c-.21,0-.43-.03-.61-.03-3.93,0-6.33,2.5-6.33,6.94v9.58h-2.54v-18.81h2.43v3.68c1.18-2.5,3.58-3.83,7.04-3.83Z"/>
        <path class="cls-1" d="M519.41,546.28l-9.4,21.06c-1.57,3.69-3.57,4.86-6.26,4.86-1.75,0-3.43-.57-4.58-1.71l1.18-1.9c.93.93,2.07,1.43,3.43,1.43,1.68,0,2.83-.79,3.89-3.15l.82-1.83-8.4-18.77h2.65l7.08,15.98,7.08-15.98h2.5Z"/>
        <path class="cls-1" d="M530,555.68c0-5.61,4.08-9.55,9.69-9.55,3.18,0,5.87,1.25,7.37,3.72l-1.9,1.29c-1.29-1.89-3.29-2.79-5.47-2.79-4.11,0-7.11,2.93-7.11,7.33s3,7.33,7.11,7.33c2.18,0,4.19-.86,5.47-2.75l1.9,1.29c-1.5,2.43-4.19,3.72-7.37,3.72-5.61,0-9.69-3.97-9.69-9.58Z"/>
        <path class="cls-1" d="M549.9,555.68c0-5.58,4.08-9.55,9.58-9.55s9.55,3.97,9.55,9.55-4.04,9.58-9.55,9.58-9.58-4.01-9.58-9.58ZM566.46,555.68c0-4.4-2.97-7.33-6.97-7.33s-7.01,2.93-7.01,7.33,3,7.33,7.01,7.33,6.97-2.93,6.97-7.33Z"/>
        <path class="cls-1" d="M572.34,563.29c0-1.11.86-1.93,1.9-1.93s1.93.82,1.93,1.93-.89,1.97-1.93,1.97-1.9-.86-1.9-1.97Z"/>
        <path class="cls-1" d="M589.91,540.34c0-.97.82-1.79,1.86-1.79s1.86.79,1.86,1.76c0,1.04-.79,1.86-1.86,1.86s-1.86-.82-1.86-1.82ZM590.48,546.28h2.54v18.81h-2.54v-18.81Z"/>
        <path class="cls-1" d="M617.18,554.18v10.91h-2.54v-10.66c0-3.97-2.07-6.01-5.65-6.01-4.04,0-6.58,2.5-6.58,6.79v9.87h-2.54v-18.81h2.43v3.47c1.36-2.29,3.9-3.61,7.15-3.61,4.58,0,7.72,2.65,7.72,8.05Z"/>
        <path class="cls-1" d="M621.95,555.68c0-5.61,4.08-9.55,9.69-9.55,3.18,0,5.87,1.25,7.37,3.72l-1.9,1.29c-1.29-1.89-3.29-2.79-5.47-2.79-4.11,0-7.11,2.93-7.11,7.33s3,7.33,7.11,7.33c2.18,0,4.19-.86,5.47-2.75l1.9,1.29c-1.5,2.43-4.19,3.72-7.37,3.72-5.61,0-9.69-3.97-9.69-9.58Z"/>
        <path class="cls-1" d="M642.1,563.29c0-1.11.86-1.93,1.9-1.93s1.93.82,1.93,1.93-.89,1.97-1.93,1.97-1.9-.86-1.9-1.97Z"/>
      </g>
      <g>
        <path class="cls-4" d="M467.2,205.77c-18.46,5.81-27.03,34.02-47.19,35.36-17.44,1.15-30.44-17.34-47.18-19.81-18.01-2.66-36.72,1.43-54.85.5v10.98h28.86c8.5,0,17.57-.98,25.98.4,16.28,2.68,30.32,18.87,47.19,18.09,19.75-.91,29.03-28.18,47.19-33.6,7.78-2.32,16.66,1.73,23.73,4.71,10.38,4.37,19.75,9.17,31.11,10.4v-10.98c-11.53-1.19-20.74-6.39-31.11-11.09-7.03-3.18-15.89-7.43-23.73-4.96"/>
        <path class="cls-2" d="M467.2,231.94c-17.46,3.92-28.73,24.52-47.19,25.19-16.44.6-31.09-11.59-47.19-13.57-17.79-2.18-36.93-.3-54.84-.3v10.98c18.21,0,36.66-.86,54.84.08,15.97.82,31.1,7.76,47.19,7.5,16.96-.27,30.57-12.34,47.19-13.93,18.36-1.75,36.53,5.88,54.84,6.35v-10.98c-10.98-.87-20.7-4.5-31.11-7.79-7.37-2.33-15.94-5.28-23.73-3.54"/>
        <path class="cls-3" d="M467.2,262.56c-15.87-.04-31.27,5.7-47.19,5.69-15.78-.01-31.42-3.63-47.19-3.6-18.28.04-36.56.08-54.84.08v10.98h204.06v-10.98c-18.31.22-36.53-2.12-54.84-2.16"/>
        <path class="cls-4" d="M483.07,138.82l-9.27-2.91-.5-.16v59.41c3.4.12,6.67.79,9.77,1.74v-58.07Z"/>
        <path class="cls-4" d="M463.58,141.88V51.25l-9.77-3.79v100.13l7.04-4.12v54.12c.89-.38,1.79-.74,2.73-1.05v-54.66Z"/>
        <path class="cls-4" d="M419.36,231.24c1.81-.12,3.54-.68,5.24-1.57V36.1l-9.77-3.8v198.51c1.22.29,2.42.46,3.61.46.3,0,.61,0,.92-.03"/>
        <path class="cls-4" d="M522.04,151.07l-9.77-3.08v61.36c3.19,1.16,6.4,2.02,9.77,2.46v-60.75Z"/>
        <path class="cls-4" d="M366.14,210.7v-119.9l-9.77,3.25v116.48c.9-.01,1.8-.04,2.7-.04,2.48,0,4.81.08,7.07.21"/>
        <path class="cls-4" d="M444.09,153.28V43.68l-9.77-3.8v119.12l7.04-4.12v58.49c.89-1,1.79-2,2.72-3v-57.09Z"/>
        <path class="cls-4" d="M323.74,212.05c1.13,0,2.27-.03,3.41-.05v-108.23l-9.77,3.25v104.85l1.11.06c1.67.09,3.39.13,5.25.13"/>
        <path class="cls-4" d="M385.62,92.68V20.95l-9.77-3.8v70.43l7.04,3.68v122.58c.92.35,1.83.74,2.73,1.15v-122.3Z"/>
        <path class="cls-4" d="M346.64,210.93v-113.64l-9.77,3.25v111.01c1.27-.08,2.55-.16,3.85-.25,1.95-.13,3.93-.26,5.91-.37"/>
        <path class="cls-4" d="M495.02,201.71c1.81.82,3.59,1.65,5.35,2.48.74.35,1.46.68,2.18,1.02v-60.27l-9.77-3.08v58.82c.5.23,1,.45,1.48.67l.76.35Z"/>
        <path class="cls-4" d="M405.11,102.84V28.52l-9.77-3.8v73.02l7.04,3.68v123.37c.92.58,1.82,1.14,2.73,1.67v-123.62Z"/>
        <path class="cls-1" d="M611.36,309.58c9.44,4.18,14.23,3.24,14.37-2.83h3.95l3.13,40.97-3.74.4c-2.77-11.53-6.78-20.43-12.04-26.7-6.88-8.3-15.95-12.21-27.22-11.73-7.96.14-14.47,2.36-19.53,6.68-3.1,2.43-5.16,5.73-6.17,9.91-1.21,3.98-1.35,8.13-.4,12.44.74,3.64,2.56,6.88,5.46,9.71,3.57,3.64,12.14,7.92,25.7,12.85,13.16,4.85,22.16,8.7,27.02,11.53,7.15,4.25,12.55,9.24,16.19,14.97,3.64,6.07,5.26,13.72,4.86,22.96-.67,12.81-5.8,23.7-15.38,32.67-9.99,9.24-23.04,13.45-39.16,12.65-9.31-.4-18.72-3.3-28.23-8.7-3.64-2.09-6.56-3.49-8.76-4.2-2.19-.71-4.2-.18-6.02,1.57-1.82,1.76-2.87,4.82-3.14,9.21h-3.64v-45.12h3.64c2.97,12.28,7.89,21.85,14.77,28.73,8.09,7.96,18.42,12.18,30.96,12.65,9.98.4,18.11-1.65,24.39-6.17,3.98-2.83,6.74-6.48,8.3-10.92,1.48-3.78,2.02-8.26,1.62-13.45-.4-4.12-1.89-7.92-4.45-11.43-2.29-2.9-6-5.83-11.13-8.8-5.06-2.83-11.16-5.59-18.31-8.29-7.15-2.77-12.48-5.06-15.99-6.88-20.51-10.38-30.82-23.54-30.96-39.45,0-11.33,3.98-20.74,11.94-28.23,9.17-7.95,20.98-11.93,35.41-11.93,7.49,0,15.01,1.65,22.56,4.95"/>
        <path class="cls-1" d="M308.08,433.6l-52.72-126.85h-6.88l-48.26,126.85c-4.18,10.79-11.44,16.08-21.75,15.88v4.45h37.33v-4.45c-11.47,0-11.58-5.29-7.33-15.88l10.93-28.53h48.42l11.73,28.53c4.32,10.72.74,16.02-10.72,15.88v4.45h60.5v-4.45c-9.71-.27-16.79-5.56-21.25-15.88M221.12,400.82c1.08-2.77,6.8-17.72,21.5-56.22l23.36,56.22h-44.87Z"/>
        <path class="cls-1" d="M503.59,431.37l.05-124.62h-44.27v4.05c12.21.07,18.31,6.27,18.31,18.61v101.96c0,12.34-6.11,18.51-18.31,18.51v4.05h62.53v-4.05c-12.21,0-18.31-6.17-18.31-18.51"/>
        <path class="cls-1" d="M417.68,306.75h-79.83v4.05c12.21-.34,18.32,5.83,18.32,18.51v102.07c.06,12.34-6.04,18.52-18.32,18.52v4.04h62.43v-4.04c-12.28,0-18.38-6.17-18.32-18.52v-53.88c6.54,0,22.26.07,23.16.07.04,0,.08,0,.12,0h12.44c35.27,0,43.21-20.63,43.21-36.87,0-13.07-13.38-33.94-43.21-33.94M398.96,373.01h-17v-61.54c2.74.01,5.58.02,7.92.03h9.08c21.5,0,35.01,8.52,35.01,28.98,0,26.87-19.89,32.52-35.01,32.52"/>
        <path class="cls-1" d="M748.1,306.85v3.95c12.21,0,18.32,6.17,18.32,18.51v79.2c0,13.02-3.64,22.63-10.93,28.83-7.15,6.27-17.4,9.41-30.76,9.41s-20.11-3.22-27.46-9.66c-7.35-6.44-11.09-15.97-11.23-28.58v-101.66h-44.42v3.95c12.28,0,18.38,6.17,18.32,18.51v79.2c0,15.58,4.86,27.35,14.57,35.3,10.32,8.3,24.52,12.44,42.6,12.44s31.5-4.15,41.89-12.44c10.52-8.36,15.79-20.13,15.79-35.3v-101.66h-26.67Z"/>
        <path class="cls-1" d="M169.43,306.75v4.05c11.26.07,12.55,6.27,3.84,18.61l-28.79,40.99-36.55-59.73c3.7,0,11.34.02,17.44.04v-3.96h-60.71v4.05c8.36,0,16.29,6.17,23.78,18.51l27.22,44.41c4.32,7.01,6.71,11.5,7.18,13.45,1.08,3.64,1.69,9.95,1.82,18.92v25.49c0,12.27-6.17,18.38-18.52,18.31v4.04h62.73v-4.04c-12.42,0-18.65-6.11-18.72-18.31v-45.92c0-4.85.2-7.79.61-8.8.6-1.82,1.38-3.31,2.33-4.45l44.52-65.65"/>
      </g>
    </g>
  </g>
</svg>